# xmcd CD database file
#
# Track frame offsets:
#	150
#	22507
#	41092
#	63450
#
# Disc length: 1091 seconds
#
# Revision: 0
# Processed by: cddbd v1.5.1PL0 Copyright (c) Steve Scherf et al.
# Submitted via: CDex 1.51
#
DISCID=27044104
DTITLE=坂口実央 - ENJOY BAD DAYS, ENJOY GOOD DAYS
DYEAR=2000
DGENRE=JPop
TTITLE0=ENJOY BAD DAYS, ENJOY GOOD DAYS
TTITLE1=Wanna Be Your Melody
TTITLE2=ENJOY BAD DAYS, ENJOY GOOD DATS (TV mix)
TTITLE3=Wanna Be Your Melody (TV mix)
EXTD=YEAR: 2000
EXTT0=
EXTT1=
EXTT2=
EXTT3=
PLAYORDER=
